<?xml version="1.0" standalone="no"?>
<!DOCTYPE svg PUBLIC "-//W3C//DTD SVG 20010904//EN"
 "http://www.w3.org/TR/2001/REC-SVG-20010904/DTD/svg10.dtd">
<svg version="1.0" xmlns="http://www.w3.org/2000/svg"
 width="851.000000pt" height="851.000000pt" viewBox="0 0 851.000000 851.000000"
 preserveAspectRatio="xMidYMid meet">
<metadata>
Created by potrace 1.14, written by Peter Selinger 2001-2017
</metadata>
<g transform="translate(0.000000,851.000000) scale(0.100000,-0.100000)"
fill="#000000" stroke="none">
<path d="M4104 8408 c-3 -4 5 -5 17 -3 30 6 36 14 9 12 -12 -1 -24 -5 -26 -9z"/>
<path d="M4271 8404 c6 -8 5 -14 -6 -18 -9 -3 -15 0 -15 9 0 8 -8 15 -17 14
-11 0 -13 -3 -5 -6 24 -9 1 -22 -23 -13 -16 6 -25 6 -25 0 0 -6 -7 -10 -15
-10 -8 0 -15 6 -15 13 0 8 -2 9 -8 1 -4 -6 -30 -14 -59 -18 -28 -3 -58 -9 -67
-12 -9 -3 -23 -1 -31 6 -13 11 -14 10 -9 -3 5 -13 0 -15 -21 -11 -15 3 -24 1
-21 -5 5 -8 -58 -27 -76 -23 -5 1 -8 -3 -8 -9 0 -6 -9 -8 -21 -4 -15 5 -19 4
-15 -4 6 -9 -7 -16 -17 -8 -2 1 -11 -4 -20 -12 -10 -7 -17 -10 -17 -5 0 5 -4
4 -8 -2 -4 -6 -31 -24 -61 -40 -30 -15 -92 -56 -139 -91 -46 -34 -89 -60 -95
-56 -6 4 -7 1 -2 -6 9 -15 -71 -101 -95 -101 -13 0 -13 -1 0 -10 13 -8 12 -10
-2 -10 -10 0 -17 -5 -15 -11 1 -6 -4 -14 -12 -17 -8 -2 -11 0 -7 6 3 6 2 13
-3 16 -10 7 -9 -13 2 -31 4 -7 -2 -18 -15 -27 -12 -9 -18 -16 -13 -16 6 0 2
-5 -8 -11 -9 -6 -14 -15 -11 -21 5 -7 1 -9 -9 -5 -12 4 -14 2 -10 -10 4 -10 2
-14 -5 -9 -6 3 -14 1 -18 -5 -4 -8 -3 -9 4 -5 19 12 14 -5 -28 -87 -22 -43
-40 -85 -40 -93 0 -8 -4 -14 -10 -14 -5 0 -6 -8 -3 -17 5 -13 2 -15 -11 -10
-13 5 -15 3 -8 -10 13 -22 3 -53 -17 -54 -10 0 -11 -2 -3 -6 6 -2 12 -9 12
-15 0 -6 -7 -7 -16 -4 -14 5 -15 4 -5 -7 9 -11 10 -62 1 -62 -2 0 -10 -56 -11
-77 0 -10 -6 -18 -12 -18 -8 0 -8 -3 -2 -8 14 -9 13 -125 0 -134 -6 -5 -4 -8
5 -8 13 0 13 -1 0 -10 -12 -8 -12 -10 -1 -10 11 0 9 -5 -5 -22 -15 -19 -16
-20 -1 -9 9 7 17 10 17 6 0 -5 -8 -18 -17 -29 -17 -20 -17 -20 1 -6 18 14 19
13 12 -12 -3 -16 -3 -28 2 -28 4 0 9 -19 11 -42 1 -24 3 -51 4 -60 1 -10 4
-18 8 -18 4 0 9 -9 12 -20 3 -11 0 -20 -5 -20 -6 0 -4 -8 5 -18 11 -12 13 -22
6 -35 -7 -12 -7 -17 2 -15 6 2 14 -3 17 -11 3 -9 0 -11 -9 -6 -8 4 -4 -2 9
-14 24 -24 30 -39 9 -25 -7 5 -4 1 7 -9 19 -17 19 -18 0 -32 -14 -12 -15 -14
-3 -9 11 3 23 -3 33 -17 15 -22 13 -44 -5 -34 -5 4 -9 1 -9 -5 0 -7 8 -9 20
-5 16 5 20 2 20 -15 0 -13 -4 -19 -12 -14 -7 4 -8 3 -4 -5 4 -6 12 -9 17 -6 5
4 14 3 20 -1 8 -4 7 -9 -2 -15 -11 -7 -10 -9 3 -9 9 0 19 -8 23 -19 3 -10 17
-31 30 -47 14 -16 25 -35 25 -42 0 -7 5 -10 11 -6 8 5 10 -1 7 -20 -4 -19 -2
-24 5 -17 6 6 21 -2 43 -26 33 -35 46 -61 22 -47 -7 4 -8 3 -4 -5 6 -9 11 -9
24 1 13 11 15 10 9 -4 -4 -12 -2 -15 8 -12 7 3 16 -3 20 -15 3 -12 13 -21 21
-21 8 0 14 -7 14 -16 0 -9 -5 -12 -12 -8 -7 4 -8 3 -4 -5 4 -6 11 -9 16 -6 13
8 40 -6 40 -20 0 -7 7 -16 16 -19 11 -4 13 -13 9 -28 -7 -23 -7 -23 10 -3 14
17 16 18 11 2 -3 -10 -2 -16 2 -13 9 5 62 -40 62 -53 0 -4 12 -13 26 -19 19
-9 24 -17 20 -35 -3 -12 -3 -16 0 -9 3 6 10 12 15 12 6 0 7 -4 4 -10 -3 -5 1
-10 9 -10 9 0 16 -9 16 -20 0 -11 3 -19 8 -19 19 3 32 -2 32 -14 0 -7 9 -18
20 -25 11 -7 20 -17 20 -23 0 -5 -5 -7 -12 -3 -7 4 -8 3 -4 -4 4 -6 14 -8 23
-5 11 4 14 3 9 -5 -5 -8 -1 -10 10 -5 12 4 15 2 12 -8 -3 -8 -11 -13 -17 -11
-15 3 -14 -3 5 -18 12 -11 15 -11 12 0 -2 7 3 15 11 18 10 3 12 0 8 -11 -4
-10 -2 -14 7 -11 16 6 50 -31 41 -45 -3 -6 1 -14 9 -17 9 -3 13 -11 9 -17 -4
-6 -1 -7 7 -2 10 6 9 11 -5 22 -11 7 -14 13 -8 13 17 0 35 -28 27 -41 -5 -9
-2 -10 9 -6 21 8 34 -12 16 -25 -10 -6 -7 -7 9 -3 21 6 23 4 18 -17 -3 -12 -3
-17 0 -10 3 6 10 9 15 6 6 -4 6 -11 -1 -19 -8 -10 -8 -15 1 -21 7 -4 9 -3 5 4
-3 6 -1 14 5 18 14 8 28 -14 24 -37 -2 -10 0 -21 5 -24 5 -3 7 3 5 14 -3 14 1
18 11 14 8 -3 13 -12 10 -19 -3 -9 0 -11 12 -7 14 6 15 4 4 -9 -10 -13 -10
-18 -1 -24 8 -4 9 -3 5 4 -10 16 0 15 29 -4 18 -12 24 -23 21 -40 -3 -14 -1
-22 5 -19 5 4 7 11 4 16 -4 5 -1 9 4 9 6 0 11 -7 11 -15 0 -8 5 -15 11 -15 6
0 17 -7 26 -15 14 -14 17 -14 32 0 21 18 35 20 25 3 -4 -7 -3 -8 5 -4 6 4 9
12 5 17 -8 13 34 59 53 59 8 0 11 5 7 12 -5 7 -2 9 9 5 11 -4 14 -2 10 9 -3 9
1 14 13 14 9 0 15 3 11 6 -9 9 54 74 71 74 9 0 13 3 10 6 -3 3 5 17 17 30 20
22 27 24 47 14 21 -10 21 -10 6 3 -22 18 -23 31 -2 23 8 -3 12 -2 9 4 -3 6 -1
10 5 10 6 0 8 5 5 11 -4 6 2 13 14 16 11 3 18 10 14 16 -4 6 0 8 11 4 10 -4
15 -3 11 3 -8 12 69 93 78 83 4 -3 7 2 7 11 0 12 5 16 14 13 11 -4 13 -1 9 10
-4 11 -2 14 5 9 7 -4 12 -2 12 6 0 16 50 59 61 52 5 -3 6 3 2 12 -4 11 -2 15
4 11 6 -4 13 3 16 14 3 12 10 18 16 14 6 -3 11 -1 11 5 0 6 4 8 10 5 6 -4 7 1
3 11 -4 12 -3 15 5 10 7 -4 12 -2 12 4 0 22 58 70 77 64 15 -5 15 -4 3 5 -13
9 -13 12 3 28 16 16 19 16 28 3 9 -13 10 -13 6 2 -7 22 14 49 40 51 12 0 19 5
17 9 -3 5 -11 5 -17 2 -7 -4 1 6 18 22 16 16 33 28 37 26 5 -1 7 4 6 10 -2 7
3 12 11 10 9 -2 11 3 7 13 -3 9 -2 13 4 10 6 -3 10 -1 10 5 0 6 11 22 25 35
13 14 21 25 17 25 -4 0 -2 4 4 8 5 4 20 24 33 45 12 20 27 35 32 32 5 -4 6 1
3 9 -3 9 -1 16 6 16 6 0 8 5 5 10 -3 6 -1 10 5 10 6 0 8 5 5 10 -3 6 -1 10 5
10 6 0 8 5 4 12 -5 7 -2 9 8 6 8 -4 15 0 15 8 0 7 -4 11 -9 8 -4 -3 -5 2 -2
10 3 9 10 13 15 10 5 -3 6 2 3 10 -3 9 -1 16 5 16 6 0 8 8 5 18 -5 14 -3 14
10 -2 17 -21 22 -11 7 13 -10 16 -3 44 9 36 5 -3 6 4 3 15 -3 11 -1 26 5 33 9
12 27 85 24 100 -3 11 12 9 25 -4 8 -8 13 -8 18 0 4 7 1 10 -7 9 -7 -2 -12 5
-12 14 1 10 -2 15 -7 12 -14 -8 -11 18 6 49 8 15 9 25 4 21 -7 -4 -9 1 -4 15
3 12 7 48 7 81 1 32 5 57 10 54 4 -3 8 0 8 5 0 6 -4 11 -8 11 -4 0 -9 19 -10
43 -2 23 -5 60 -8 82 -3 22 -6 56 -7 75 -1 19 -5 37 -9 40 -6 5 -19 59 -21 93
-1 9 -4 17 -8 17 -3 0 -12 21 -19 48 -8 26 -17 50 -22 53 -5 3 -10 16 -11 27
-1 12 -4 22 -7 22 -3 0 -14 18 -24 40 -11 22 -23 40 -28 40 -5 0 -7 9 -3 19 3
11 0 23 -6 27 -8 5 -9 3 -4 -6 5 -8 4 -11 -3 -6 -6 4 -8 14 -5 24 3 9 3 14 -2
10 -4 -4 -14 0 -22 8 -13 12 -13 17 -1 32 11 15 11 16 -3 4 -14 -10 -19 -8
-35 15 -10 16 -24 34 -31 41 -7 8 -10 19 -6 25 4 6 0 8 -10 4 -11 -4 -17 -1
-17 8 0 7 -9 16 -19 20 -13 4 -18 12 -14 22 4 9 2 14 -3 10 -6 -3 -16 -2 -24
4 -10 6 -11 9 -2 9 6 0 12 4 12 10 0 5 -7 7 -15 4 -8 -3 -28 8 -47 25 -18 17
-39 31 -45 31 -7 0 -13 5 -13 11 0 5 4 7 10 4 6 -3 7 1 3 10 -4 13 -7 14 -14
3 -6 -10 -11 -10 -21 0 -6 6 -9 12 -5 12 4 0 3 9 -3 20 -11 21 -30 27 -30 9 0
-5 4 -8 9 -5 5 3 12 -1 15 -10 3 -9 3 -14 -1 -12 -51 24 -63 33 -63 44 0 7 -4
16 -10 19 -6 3 -7 -1 -4 -10 5 -12 -3 -10 -37 7 -45 24 -61 37 -54 48 2 4 -2
7 -10 7 -12 0 -12 -3 -2 -15 10 -12 6 -12 -20 1 -18 10 -39 17 -48 17 -8 0
-23 4 -33 9 -26 14 -55 25 -72 26 -8 0 -14 6 -12 13 3 15 -15 16 -20 0 -3 -9
-15 -8 -49 1 -24 6 -71 13 -104 14 -46 2 -60 6 -59 18 1 8 -7 15 -17 15 -12 0
-15 -4 -8 -12z"/>
<path d="M4037 8403 c-10 -9 -9 -23 1 -23 5 0 9 7 9 15 0 17 -1 18 -10 8z"/>
<path d="M4430 8406 c0 -2 8 -10 18 -17 15 -13 16 -12 3 4 -13 16 -21 21 -21
13z"/>
<path d="M4473 8387 c0 -8 6 -14 14 -14 9 0 10 4 2 14 -6 7 -12 13 -14 13 -1
0 -2 -6 -2 -13z"/>
<path d="M3876 8372 c-3 -5 1 -9 9 -9 8 0 12 4 9 9 -3 4 -7 8 -9 8 -2 0 -6 -4
-9 -8z"/>
<path d="M4613 8359 c-2 -23 3 -25 10 -4 4 8 3 16 -1 19 -4 3 -9 -4 -9 -15z"/>
<path d="M3839 8343 c-12 -16 -12 -17 2 -6 9 7 20 9 24 5 5 -4 5 -1 1 6 -9 16
-11 15 -27 -5z"/>
<path d="M4635 8340 c-3 -5 -1 -10 4 -10 6 0 11 5 11 10 0 6 -2 10 -4 10 -3 0
-8 -4 -11 -10z"/>
<path d="M4749 8313 c-13 -16 -12 -17 4 -4 9 7 17 15 17 17 0 8 -8 3 -21 -13z"/>
<path d="M3750 8310 c0 -5 5 -10 10 -10 6 0 10 5 10 10 0 6 -4 10 -10 10 -5 0
-10 -4 -10 -10z"/>
<path d="M3696 8292 c-2 -4 -1 -14 4 -22 7 -11 9 -9 7 8 -1 24 -3 26 -11 14z"/>
<path d="M4807 8289 c7 -7 15 -10 18 -7 3 3 -2 9 -12 12 -14 6 -15 5 -6 -5z"/>
<path d="M3629 8233 c-13 -16 -12 -17 4 -4 9 7 17 15 17 17 0 8 -8 3 -21 -13z"/>
<path d="M3590 8210 c-9 -6 -10 -10 -3 -10 6 0 15 5 18 10 8 12 4 12 -15 0z"/>
<path d="M4965 8170 c-3 -6 1 -7 9 -4 18 7 21 14 7 14 -6 0 -13 -4 -16 -10z"/>
<path d="M4980 8156 c0 -2 8 -10 18 -17 15 -13 16 -12 3 4 -13 16 -21 21 -21
13z"/>
<path d="M3420 8096 c0 -2 8 -10 18 -17 15 -13 16 -12 3 4 -13 16 -21 21 -21
13z"/>
<path d="M5075 8090 c3 -5 8 -10 11 -10 2 0 4 5 4 10 0 6 -5 10 -11 10 -5 0
-7 -4 -4 -10z"/>
<path d="M3413 8058 c1 -8 -6 -12 -18 -11 -11 1 -14 0 -7 -3 6 -3 9 -11 5 -17
-3 -7 3 -4 15 7 12 10 19 23 16 27 -8 13 -14 11 -11 -3z"/>
<path d="M5170 7973 c5 -2 8 -9 5 -13 -3 -5 -1 -11 4 -14 5 -4 8 2 7 11 -2 9
-8 18 -15 19 -6 1 -7 0 -1 -3z"/>
<path d="M3275 7950 c-3 -5 -1 -10 4 -10 6 0 11 5 11 10 0 6 -2 10 -4 10 -3 0
-8 -4 -11 -10z"/>
<path d="M5215 7910 c3 -5 8 -10 11 -10 2 0 4 5 4 10 0 6 -5 10 -11 10 -5 0
-7 -4 -4 -10z"/>
<path d="M34 7901 c5 -8 208 -262 249 -311 7 -8 39 -49 72 -90 33 -41 68 -84
77 -95 16 -20 309 -385 842 -1050 154 -192 285 -355 291 -361 5 -6 21 -26 35
-44 23 -30 120 -151 204 -255 18 -22 154 -191 301 -375 148 -184 433 -540 634
-790 201 -250 414 -516 473 -590 60 -74 114 -142 121 -150 7 -8 28 -35 47 -60
19 -24 43 -53 52 -63 15 -18 16 -117 15 -1316 l-2 -1296 -1700 -2 c-935 -1
-1710 -2 -1722 -2 l-23 -1 0 -498 0 -499 4250 0 c3873 0 4250 2 4251 16 1 9 2
233 3 498 1 423 -1 483 -14 484 -8 0 -828 1 -1822 1 l-1808 0 0 1303 0 1304
126 148 c70 81 140 164 158 184 17 20 51 60 76 89 25 30 86 101 136 159 152
178 465 545 482 566 32 39 187 220 192 225 3 3 71 81 150 175 80 93 155 181
166 195 68 78 293 342 444 520 96 113 177 207 180 210 3 3 41 48 85 100 44 52
82 97 85 100 3 3 43 50 90 105 180 210 266 311 286 335 12 14 89 104 171 200
82 96 245 288 363 425 117 138 234 274 259 304 25 30 51 59 56 65 6 6 36 42
68 79 l59 67 -799 0 -798 0 -142 -187 c-79 -104 -206 -271 -283 -373 -77 -102
-146 -192 -153 -200 -7 -8 -91 -118 -187 -245 -194 -256 -181 -239 -213 -280
-13 -16 -61 -79 -107 -140 -127 -167 -198 -260 -287 -375 -98 -128 -568 -756
-643 -860 -30 -41 -57 -77 -60 -80 -17 -14 -374 -525 -467 -666 -58 -90 -112
-164 -118 -164 -7 0 -78 98 -158 218 -81 119 -161 237 -178 262 -18 25 -59 85
-93 135 -33 49 -66 96 -73 105 -6 8 -71 98 -144 200 -158 222 -364 501 -796
1079 -10 13 -119 159 -243 325 -124 166 -384 514 -578 774 l-352 472 -796 0
c-475 0 -793 -4 -790 -9z"/>
<path d="M3255 7890 c-3 -5 -1 -10 4 -10 6 0 11 5 11 10 0 6 -2 10 -4 10 -3 0
-8 -4 -11 -10z"/>
<path d="M5270 7840 c-9 -6 -10 -10 -3 -10 6 0 15 5 18 10 8 12 4 12 -15 0z"/>
<path d="M5274 7812 c4 -3 14 -7 22 -8 9 -1 13 0 10 4 -4 3 -14 7 -22 8 -9 1
-13 0 -10 -4z"/>
<path d="M3195 7780 c-3 -6 1 -7 9 -4 18 7 21 14 7 14 -6 0 -13 -4 -16 -10z"/>
<path d="M5280 7786 c0 -2 7 -7 16 -10 8 -3 12 -2 9 4 -6 10 -25 14 -25 6z"/>
<path d="M3166 7708 c3 -5 10 -6 15 -3 13 9 11 12 -6 12 -8 0 -12 -4 -9 -9z"/>
<path d="M5350 7650 c0 -5 5 -10 11 -10 5 0 7 5 4 10 -3 6 -8 10 -11 10 -2 0
-4 -4 -4 -10z"/>
<path d="M5395 7639 c-4 -6 -5 -12 -2 -15 2 -3 7 2 10 11 7 17 1 20 -8 4z"/>
<path d="M5380 7570 c-9 -6 -10 -10 -3 -10 6 0 15 5 18 10 8 12 4 12 -15 0z"/>
<path d="M5385 7530 c-3 -6 1 -7 9 -4 18 7 21 14 7 14 -6 0 -13 -4 -16 -10z"/>
<path d="M3079 7403 c-13 -16 -12 -17 4 -4 16 13 21 21 13 21 -2 0 -10 -8 -17
-17z"/>
<path d="M5410 7390 c0 -5 9 -8 20 -7 21 1 18 10 -5 13 -8 1 -15 -2 -15 -6z"/>
<path d="M3056 7377 c3 -10 9 -15 12 -12 3 3 0 11 -7 18 -10 9 -11 8 -5 -6z"/>
<path d="M5428 7283 c7 -3 16 -2 19 1 4 3 -2 6 -13 5 -11 0 -14 -3 -6 -6z"/>
<path d="M5436 7257 c3 -10 9 -15 12 -12 3 3 0 11 -7 18 -10 9 -11 8 -5 -6z"/>
<path d="M3055 7191 c-3 -5 -2 -12 3 -15 5 -3 9 1 9 9 0 17 -3 19 -12 6z"/>
<path d="M5430 7180 c-9 -6 -10 -10 -3 -10 6 0 15 5 18 10 8 12 4 12 -15 0z"/>
<path d="M5415 7050 c-3 -5 -1 -10 4 -10 6 0 11 5 11 10 0 6 -2 10 -4 10 -3 0
-8 -4 -11 -10z"/>
<path d="M5371 6834 c0 -11 3 -14 6 -6 3 7 2 16 -1 19 -3 4 -6 -2 -5 -13z"/>
<path d="M5389 6793 c-13 -16 -12 -17 4 -4 9 7 17 15 17 17 0 8 -8 3 -21 -13z"/>
<path d="M5273 6615 c0 -8 4 -12 9 -9 5 3 6 10 3 15 -9 13 -12 11 -12 -6z"/>
<path d="M5216 6552 c-3 -5 1 -9 9 -9 8 0 12 4 9 9 -3 4 -7 8 -9 8 -2 0 -6 -4
-9 -8z"/>
<path d="M5086 6395 c-11 -8 -15 -15 -9 -15 6 0 16 7 23 15 16 19 11 19 -14 0z"/>
<path d="M5030 6340 c-9 -6 -10 -10 -3 -10 6 0 15 5 18 10 8 12 4 12 -15 0z"/>
<path d="M3678 6133 c7 -3 16 -2 19 1 4 3 -2 6 -13 5 -11 0 -14 -3 -6 -6z"/>
<path d="M4659 5983 c-13 -16 -12 -17 4 -4 16 13 21 21 13 21 -2 0 -10 -8 -17
-17z"/>
<path d="M4696 5952 c-3 -5 1 -9 9 -9 8 0 12 4 9 9 -3 4 -7 8 -9 8 -2 0 -6 -4
-9 -8z"/>
<path d="M3901 5914 c0 -11 3 -14 6 -6 3 7 2 16 -1 19 -3 4 -6 -2 -5 -13z"/>
<path d="M4519 5823 c-13 -16 -12 -17 4 -4 9 7 17 15 17 17 0 8 -8 3 -21 -13z"/>
<path d="M4506 5788 c3 -5 10 -6 15 -3 13 9 11 12 -6 12 -8 0 -12 -4 -9 -9z"/>
<path d="M4439 5763 c-13 -16 -12 -17 4 -4 9 7 17 15 17 17 0 8 -8 3 -21 -13z"/>
<path d="M4456 5743 c-6 -14 -5 -15 5 -6 7 7 10 15 7 18 -3 3 -9 -2 -12 -12z"/>
<path d="M4321 5646 c-9 -11 -9 -16 1 -22 7 -4 10 -4 6 1 -4 4 -3 14 3 22 6 7
9 13 6 13 -2 0 -10 -6 -16 -14z"/>
</g>
</svg>
